<?xml version="1.0" encoding="utf-8"?>
<!-- Generator: Adobe Illustrator 26.4.1, SVG Export Plug-In . SVG Version: 6.00 Build 0)  -->
<svg version="1.1" id="Layer_1" xmlns="http://www.w3.org/2000/svg" xmlns:xlink="http://www.w3.org/1999/xlink" x="0px" y="0px"
	 viewBox="0 0 450 60.9" style="enable-background:new 0 0 450 60.9;" xml:space="preserve">
<style type="text/css">
	.st0{fill:#FFFFFF;}
</style>
<g>
	<path class="st0" d="M89.9,54.7c-13.9,0-23.2-10.9-23.2-23.6S76.2,7.4,90,7.4c13.9,0,23.2,10.9,23.2,23.6
		C113.3,43.6,103.8,54.7,89.9,54.7 M89.9,12.1C79.5,12.1,72,20.5,72,30.9s7.6,18.9,18,18.9s17.9-8.4,17.9-18.8S100.4,12.1,89.9,12.1
		"/>
	<path class="st0" d="M125.1,53.9h-5.1V20.1h5.1V26c2.2-3.6,5.7-6.6,11.6-6.6c8.1,0,12.9,5.5,12.9,13.5v21h-5.1V34.1
		c0-6.3-3.4-10.2-9.3-10.2c-5.8,0-10.1,4.3-10.1,10.6L125.1,53.9z"/>
	<rect x="157.5" y="6.2" class="st0" width="5.1" height="47.7"/>
	<path class="st0" d="M171.1,7.2h5.8v5.6h-5.7L171.1,7.2z M171.4,20.1h5.1v33.8h-5.1V20.1z"/>
	<path class="st0" d="M189.9,53.9h-5.1V20.1h5.1V26c2.2-3.6,5.7-6.6,11.6-6.6c8.1,0,12.9,5.5,12.9,13.5v21h-5.1V34.1
		c0-6.3-3.4-10.2-9.3-10.2c-5.8,0-10.1,4.3-10.1,10.6V53.9z"/>
	<path class="st0" d="M236.8,50.3c4.7,0,7.9-1.9,10.7-4.8l3.1,2.8c-3.4,3.8-7.5,6.3-13.9,6.3c-9.3,0-16.8-7.1-16.8-17.6
		c0-9.8,6.9-17.6,16.2-17.6c10,0,15.7,8,15.7,17.9c0,0.4,0,1-0.1,1.6H225C225.6,46.1,230.9,50.3,236.8,50.3 M246.6,35.1
		c-0.5-6.1-4-11.5-10.8-11.5c-5.9,0-10.3,4.9-10.9,11.5H246.6z"/>
	<polygon class="st0" points="258.8,53.9 258.8,8.1 268.8,8.1 268.8,44.7 291.6,44.7 291.6,53.9 	"/>
	<path class="st0" d="M315.4,53.9v-3.8c-2.4,2.7-5.7,4.4-10.6,4.4c-6.6,0-12-3.8-12-10.7v-0.1c0-7.6,5.8-11.2,14.1-11.2
		c3.5,0,6.1,0.6,8.5,1.5v-0.6c0-4.1-2.5-6.4-7.5-6.4c-3.8,0-6.5,0.7-9.7,1.9l-2.5-7.6c3.9-1.7,7.6-2.8,13.6-2.8
		c10.8,0,15.6,5.6,15.6,15.1v20.2L315.4,53.9z M315.6,39.7c-1.7-0.8-3.9-1.3-6.3-1.3c-4.3,0-6.9,1.7-6.9,4.8v0.1
		c0,2.7,2.2,4.3,5.4,4.3c4.7,0,7.7-2.5,7.7-6.1V39.7z"/>
	<path class="st0" d="M351.1,54.5c-5.3,0-8.5-2.4-10.9-5.2v4.6h-9.9V6.2h9.9v17.7c2.4-3.3,5.7-5.7,10.9-5.7
		c8.1,0,15.9,6.4,15.9,18.1v0.1C367,48.1,359.4,54.5,351.1,54.5 M357.1,36.3c0-5.8-3.9-9.7-8.5-9.7c-4.7,0-8.5,3.9-8.5,9.7v0.1
		c0,5.8,3.9,9.7,8.5,9.7c4.7,0,8.5-3.8,8.5-9.7V36.3z"/>
	<path class="st0" d="M403.6,39.8h-24.4c1,4.5,4.1,6.9,8.5,6.9c3.3,0,5.7-1.1,8.5-3.6l5.7,5.1c-3.3,4-8,6.5-14.3,6.5
		c-10.5,0-18.3-7.4-18.3-18.1v-0.1c0-10,7.1-18.2,17.3-18.2c11.7,0,17.1,9.1,17.1,19v0.1C403.7,38.3,403.7,38.9,403.6,39.8
		 M386.7,26.1c-4.1,0-6.8,2.9-7.6,7.5h14.9C393.5,29.2,390.9,26.1,386.7,26.1"/>
	<rect x="408.3" y="6.2" class="st0" width="9.9" height="47.7"/>
	<path class="st0" d="M436.6,54.5c-4.9,0-10.4-1.6-15-5.3l4.3-6.5c3.8,2.8,7.7,4.2,11.1,4.2c2.9,0,4.2-1.1,4.2-2.6v-0.1
		c0-2.1-3.4-2.9-7.2-4c-4.9-1.5-10.4-3.7-10.4-10.5v-0.1c0-7.1,5.7-11.1,12.8-11.1c4.4,0,9.3,1.5,13.1,4l-3.8,6.9
		c-3.5-2-6.9-3.3-9.5-3.3c-2.4,0-3.6,1.1-3.6,2.4v0.1c0,2,3.3,2.9,7.1,4.2c4.9,1.6,10.6,4,10.6,10.4v0.2
		C450,51,444.2,54.5,436.6,54.5"/>
	<path class="st0" d="M0.8,35.3l3.6-3.6l25.8,19.5c0.8,0.6,2.1,0.6,2.8-0.2l13.6-13.5l4,3.2c0.8,0.6,0.9,1.7,0.2,2.4L33.4,60.3
		c-0.7,0.7-2,0.8-2.8,0.2L0.9,37.7C0.1,37.1,0,36,0.8,35.3"/>
	<path class="st0" d="M20.7,0.5c-1-0.7-2.4-0.6-3.2,0.2L0.8,17c-1.2,1.2-1.1,3,0.3,4L30,42.8c1,0.7,2.4,0.6,3.2-0.2l17-16.7
		c1-1,0.9-2.5-0.3-3.3L20.7,0.5z M29.6,33.7l-18.5-14c-1-0.7-1.1-2-0.2-2.8L18,9.9c0.8-0.8,2.2-0.9,3.2-0.2l18.5,14
		c1,0.7,1.1,2,0.2,2.8l-7.1,7.1C32,34.4,30.5,34.5,29.6,33.7"/>
</g>
</svg>
